# xmcd
# Copyright (C) 1995-1998 Ti Kan
#
# Track frame offsets:
#       150
#       19983
#       35175
#       48225
#       61510
#       74344
#       85935
#       106667
#       122720
#       138739
#       151284
#
# Disc length: 2155 seconds
#
# Revision: 0
# Processed by: cddbd v1.5.2PL0 Copyright (c) Steve Scherf et al.
# Submitted via: CD-Import v1.0
#
DISCID=9108690b
DTITLE=James Legeres - Ecco La Strada
DYEAR=08
DGENRE=
TTITLE0=The Warrior
TTITLE1=This Goes On
TTITLE2=Lazy Days
TTITLE3=In Love With The Keyboarder
TTITLE4=Turn To You
TTITLE5=Side By Side
TTITLE6=Tipsy West
TTITLE7=The Parrots Death
TTITLE8=Tell You More Than The Wind
TTITLE9=Et In Arcadia Ego
TTITLE10=Turn To You Ii
EXTD=
EXTT0=
EXTT1=
EXTT2=
EXTT3=
EXTT4=
EXTT5=
EXTT6=
EXTT7=
EXTT8=
EXTT9=
EXTT10=
PLAYORDER=
